PathFileType	4	(X/Y/Z)	c:/Users/goper/Files/vsCode/490R/osim_files/A04/A04_Fast_06.trc
DataRate	CameraRate	NumFrames	NumMarkers	Units                	OrigDataRate	OrigDataStartFrame	OrigNumFrames
120.00	120.00	8	36	mm	120.0	688	1374
                Frame#	Time	LPSIS			LASIS			LTH1			LTH2			LTH3			LTH4			LLFE			LMFE			LSH1			LSH2			LSH3			LSH4			LLMAL			LMMAL			LCAL			LMTP5			LTOE			LMTP1			RPSIS			RASIS			RTH1			RTH2			RTH3			RTH4			RLFE			RMFE			RSH1			RSH2			RSH3			RSH4			RLMAL			RMMAL			RCAL			RMTP1			RTOE			RMTP5		
		X1	Y1	Z1	X2	Y2	Z2	X3	Y3	Z3	X4	Y4	Z4	X5	Y5	Z5	X6	Y6	Z6	X7	Y7	Z7	X8	Y8	Z8	X9	Y9	Z9	X10	Y10	Z10	X11	Y11	Z11	X12	Y12	Z12	X13	Y13	Z13	X14	Y14	Z14	X15	Y15	Z15	X16	Y16	Z16	X17	Y17	Z17	X18	Y18	Z18	X19	Y19	Z19	X20	Y20	Z20	X21	Y21	Z21	X22	Y22	Z22	X23	Y23	Z23	X24	Y24	Z24	X25	Y25	Z25	X26	Y26	Z26	X27	Y27	Z27	X28	Y28	Z28	X29	Y29	Z29	X30	Y30	Z30	X31	Y31	Z31	X32	Y32	Z32	X33	Y33	Z33	X34	Y34	Z34	X35	Y35	Z35	X36	Y36	Z36

688	5.72500	544.07574	1067.03638	327.10938	324.86563	1010.63593	413.98709	402.97003	690.79242	427.50656	395.73047	647.85181	425.84619	0.00000	0.00000	0.00000	341.48749	653.20251	427.77338	363.69397	525.89746	415.57089	336.87820	539.17548	279.01120	388.99225	421.72156	407.29892	376.86105	378.48566	401.44766	326.84485	429.82422	400.45291	326.10263	386.96057	394.92902	374.11111	105.92739	334.75586	346.27734	112.25924	253.22404	428.44730	64.16145	273.73883	232.52054	63.73602	379.92386	180.54657	82.05966	323.46301	192.96640	66.79415	277.63766	546.34729	1050.20300	221.31288	325.81094	1005.46753	129.72542	358.44052	704.45551	94.26373	343.42285	665.20941	92.59834	301.32800	721.77167	77.45309	0.00000	0.00000	0.00000	261.21204	538.96295	94.17223	251.56422	533.53546	217.85213	462.81256	429.02478	107.83398	497.00162	396.72247	115.83054	426.88089	380.50525	99.31197	466.92520	355.19968	105.25365	636.65668	260.87845	110.93158	606.23694	243.57129	241.93983	716.62982	275.84369	192.03409	566.56299	107.27795	214.20155	536.32709	107.44910	168.21475	582.53955	115.14748	97.06433
689	5.73333	534.47192	1068.82141	328.11081	314.76926	1011.18610	413.59958	398.31540	692.00861	427.28305	390.76108	648.69836	425.28821	337.09048	698.40497	429.21628	336.73001	653.12140	427.22107	360.46933	526.46454	414.70352	333.25821	539.39429	278.16556	386.49194	422.52103	406.55466	374.58228	379.03052	400.73065	323.86697	429.91412	399.28519	323.74826	387.17358	394.25146	373.94843	106.12019	334.61252	346.01538	112.25616	253.15573	428.36749	64.34289	273.63730	232.46677	63.75291	379.85150	180.40881	81.92511	323.35190	192.88574	66.62338	277.56168	536.92065	1052.31042	222.24141	316.62668	1008.78192	129.83682	342.68445	708.93604	92.22938	326.26917	669.75299	91.51673	286.49734	727.82928	76.51035	0.00000	0.00000	0.00000	241.25447	545.27814	94.02741	231.02231	539.93799	217.74927	439.84259	429.35965	107.81551	473.03427	396.09683	115.83824	402.36328	381.89838	99.33376	441.64890	355.39560	105.30451	608.20428	255.86148	110.66099	577.56445	239.72523	241.88211	688.87994	268.59018	191.68687	533.89032	104.71597	214.67567	503.59955	105.69162	168.82976	549.75909	111.80831	97.39525
690	5.74167	524.98279	1070.41724	329.06589	305.28635	1011.79724	413.47577	392.79944	692.88940	426.75949	385.23740	649.31018	424.64682	330.91434	698.64746	428.18820	331.31415	653.67804	426.42542	356.67557	527.09259	413.78128	329.28915	539.51910	277.38773	383.60480	423.33359	405.80371	371.93933	379.67877	400.10095	321.23041	430.34091	399.10117	321.21616	387.54184	393.59836	373.77853	106.35605	334.45044	345.64740	112.09052	252.74332	428.27338	64.60799	273.52145	232.39572	63.74985	379.74677	180.25818	81.75510	323.20319	192.76445	66.47976	277.47543	527.69305	1054.21777	223.10651	307.40927	1011.95245	129.96506	326.38263	712.99170	91.11050	309.42654	674.35193	89.84608	270.10138	733.09442	76.37332	0.00000	0.00000	0.00000	223.98425	552.51636	93.17671	211.65157	546.50555	217.52826	416.79404	429.21484	107.64532	448.94550	394.92603	115.71478	377.62762	382.88702	99.39124	416.19315	355.16660	105.35019	579.54993	250.35384	110.57775	548.61908	235.44432	241.88914	660.64154	260.55991	191.35133	500.26068	101.83035	214.92847	470.06949	103.76225	169.24538	516.27350	108.15265	97.75645
691	5.75000	515.60803	1071.83789	329.88037	295.89041	1012.19873	413.37640	387.06583	693.60474	426.16254	380.12967	650.32220	424.05261	325.03638	698.98621	427.54999	325.86847	653.93878	425.80356	352.51959	527.64856	412.95395	325.08389	539.62872	276.50644	380.34995	424.14929	405.08670	370.55615	381.70810	400.81302	317.95575	430.59500	398.40991	318.06909	387.56342	393.10513	373.50677	106.38705	334.09833	345.45734	112.11578	252.57414	427.90823	64.72259	273.30826	232.29790	63.78301	379.62463	180.14207	81.61376	323.02997	192.64059	66.29982	277.33017	518.40466	1055.91895	223.85384	298.24817	1014.72107	129.98711	310.38464	717.04523	89.43250	293.15717	678.84412	87.75459	255.99713	739.35376	75.13044	0.00000	0.00000	0.00000	202.95651	557.54626	93.99180	192.14275	552.95801	217.52054	393.47382	428.43295	107.37083	424.57800	393.03149	115.44778	353.04468	383.62552	99.44173	390.60355	354.51990	105.44415	550.50684	244.33913	110.42829	519.16669	230.65802	241.86925	631.88574	251.83011	191.03410	466.17783	98.74329	215.40501	435.92493	101.53751	169.59825	482.18265	104.16665	98.12325
692	5.75833	506.26807	1072.98193	330.56616	286.44473	1012.52887	413.26791	379.55585	695.59851	424.80283	374.22839	651.01538	423.50989	318.69638	699.07465	426.91327	319.95831	654.15033	425.12329	347.88135	528.10028	412.17264	320.29120	539.64734	275.83899	376.69608	424.86935	404.46780	367.37778	382.36899	400.27094	314.27853	430.70758	397.76053	314.82959	387.66714	392.49557	373.72382	106.77567	334.17389	345.27835	112.10451	252.37865	427.74048	64.84666	273.16315	232.18628	63.76664	379.51688	179.94539	81.44281	322.87698	192.55786	66.05159	277.22549	509.17441	1057.34119	224.48492	288.94531	1017.37103	130.00452	294.65933	721.03827	87.34396	275.67407	683.15308	86.19392	0.00000	0.00000	0.00000	223.69334	697.80176	80.30499	184.08897	563.43732	94.26671	173.47406	559.27161	217.68254	370.41034	427.15918	107.48158	400.38422	390.94171	115.35414	328.50793	384.01465	99.54710	365.08344	353.70203	105.53169	520.78522	237.71916	110.31355	489.35629	225.46333	241.87593	602.62402	242.42679	190.69183	431.85980	95.68851	216.13901	401.22595	99.27467	170.17188	447.44266	100.06841	98.53882
693	5.76667	496.97086	1073.82227	331.12646	277.22708	1012.67487	413.22897	372.77676	696.14166	424.29712	367.99469	651.60547	423.12338	312.10144	699.13647	426.49884	313.69864	654.19659	424.54468	342.88388	528.54352	411.59964	315.30365	539.69519	275.12183	372.66718	425.49341	403.96185	364.06567	382.99097	399.89517	310.23825	430.71036	397.23325	311.15216	387.70795	391.94791	373.20721	106.95399	333.93277	345.00101	112.02118	252.17662	427.66452	64.90247	273.06473	232.09123	63.73921	379.41779	179.76813	81.24809	322.75485	190.93230	66.58804	276.74316	499.91962	1058.52234	224.90704	279.82599	1019.66809	130.10701	279.18442	724.83868	85.17590	259.21481	687.41400	84.13230	0.00000	0.00000	0.00000	208.81900	703.92700	78.93306	165.98862	569.21185	94.53313	156.19415	565.56293	218.33028	347.66562	425.69803	107.35422	376.13303	388.59006	115.14153	304.16272	384.21832	99.71677	337.79523	353.54645	106.66206	490.59641	230.68187	110.19035	459.47748	220.11571	242.23376	573.37256	232.82674	190.28798	396.26404	92.16187	216.27635	366.09967	96.92668	170.81306	412.00931	95.83505	99.01472
694	5.77500	487.78897	1074.44202	331.44434	268.25461	1012.84473	413.53589	365.67108	696.29822	423.98550	361.35959	652.12006	422.72906	304.86057	698.97675	425.88223	307.12372	654.20624	424.13773	337.53076	528.93140	411.09689	309.83334	539.63977	274.60043	368.41974	426.15726	403.50040	359.96970	383.48340	399.41724	305.90411	430.73132	396.84363	307.48904	387.67355	391.60394	373.01608	107.01437	333.74774	344.76767	112.06785	251.92540	427.55740	64.92352	272.97171	231.99634	63.69154	379.30685	179.64984	81.10270	322.65735	192.50690	65.22759	276.82553	490.72101	1059.40771	225.14609	270.69504	1021.65613	130.17905	263.95035	728.44391	82.93408	243.10782	691.43115	81.96714	0.00000	0.00000	0.00000	0.00000	0.00000	0.00000	148.44977	574.71844	94.70218	138.68576	571.12378	218.69539	325.03207	424.11282	107.41598	351.50424	385.50946	115.20675	279.79263	384.16656	99.88925	312.45764	352.06693	106.79497	459.72482	223.20471	110.09759	429.11658	214.39560	242.30756	542.59851	222.04932	189.82117	360.88791	89.06711	217.26288	330.64206	94.73450	171.39214	376.01001	91.63714	99.56941
695	5.78333	478.70401	1074.80261	331.58606	259.03098	1012.78613	413.62424	360.18954	696.53613	424.69812	354.59628	652.44000	422.48184	0.00000	0.00000	0.00000	300.26874	654.13763	423.89865	332.04413	529.19244	410.72388	304.32788	539.49988	274.15976	364.46823	427.09885	403.08768	356.36603	384.07028	399.07736	301.92673	430.51529	396.44028	303.87592	387.53317	391.30200	373.09604	107.14841	333.62671	344.73047	111.98622	251.93048	429.21542	66.19758	273.30743	232.14929	63.64717	379.25784	179.80475	80.94021	322.58072	192.58180	64.94376	276.78571	481.72617	1060.09534	225.14908	261.53876	1023.28278	130.29649	248.93962	731.71240	80.75546	227.38048	695.27063	79.87794	0.00000	0.00000	0.00000	0.00000	0.00000	0.00000	131.30122	579.96332	95.01063	122.32738	576.33661	218.90640	302.85840	421.37671	106.89758	327.25525	382.39346	115.16955	254.70946	383.87411	101.63239	286.40634	350.43466	107.15839	428.75317	215.80389	109.90759	398.94772	208.58018	242.28340	511.86459	211.26698	189.30626	325.02142	86.00092	217.88202	294.58130	92.60455	172.37265	339.44525	87.64688	100.14372
